<svg width="30" height="31" viewBox="0 0 30 31" fill="none" xmlns="http://www.w3.org/2000/svg">
<path id="Vector" fill-rule="evenodd" clip-rule="evenodd" d="M15 0.997803C6.7125 0.997803 0 7.7026 0 15.9806C0 22.6105 4.29375 28.2103 10.2563 30.1955C11.0063 30.3266 11.2875 29.8771 11.2875 29.4838C11.2875 29.128 11.2688 27.9481 11.2688 26.6933C7.5 27.3862 6.525 25.7756 6.225 24.9328C6.05625 24.502 5.325 23.1723 4.6875 22.8165C4.1625 22.5356 3.4125 21.8426 4.66875 21.8239C5.85 21.8051 6.69375 22.9101 6.975 23.3596C8.325 25.6258 10.4812 24.989 11.3438 24.5957C11.475 23.6218 11.8688 22.9663 12.3 22.5917C8.9625 22.2172 5.475 20.9249 5.475 15.194C5.475 13.5646 6.05625 12.2162 7.0125 11.1674C6.8625 10.7928 6.3375 9.25706 7.1625 7.19693C7.1625 7.19693 8.41875 6.80363 11.2875 8.73267C12.4875 8.39555 13.7625 8.227 15.0375 8.227C16.3125 8.227 17.5875 8.39555 18.7875 8.73267C21.6562 6.7849 22.9125 7.19693 22.9125 7.19693C23.7375 9.25706 23.2125 10.7928 23.0625 11.1674C24.0188 12.2162 24.6 13.5459 24.6 15.194C24.6 20.9436 21.0938 22.2172 17.7563 22.5917C18.3 23.06 18.7688 23.9589 18.7688 25.3636C18.7688 27.3675 18.75 28.9782 18.75 29.4838C18.75 29.8771 19.0312 30.3453 19.7812 30.1955C22.759 29.1913 25.3465 27.2797 27.1796 24.7297C29.0127 22.1798 29.9991 19.1198 30 15.9806C30 7.7026 23.2875 0.997803 15 0.997803Z" fill="#42446E"/>
</svg>
