<svg width="30" height="31" viewBox="0 0 30 31" fill="none" xmlns="http://www.w3.org/2000/svg">
<g id="Frame" clip-path="url(#clip0_302_271)">
<path id="Vector" d="M15 1.59717C7.04701 1.59717 0.600006 8.03677 0.600006 15.9806C0.600006 23.9245 7.04701 30.3641 15 30.3641C22.953 30.3641 29.4 23.9245 29.4 15.9806C29.4 8.03677 22.953 1.59717 15 1.59717ZM11.475 21.9423H8.55901V12.5691H11.475V21.9423ZM9.99901 11.4184C9.07801 11.4184 8.48251 10.7666 8.48251 9.96056C8.48251 9.138 9.09601 8.50573 10.0365 8.50573C10.977 8.50573 11.553 9.138 11.571 9.96056C11.571 10.7666 10.977 11.4184 9.99901 11.4184ZM22.125 21.9423H19.209V16.7478C19.209 15.5386 18.786 14.7176 17.7315 14.7176C16.926 14.7176 16.4475 15.2735 16.236 15.8083C16.158 15.9986 16.1385 16.2683 16.1385 16.5365V21.9408H13.221V15.5581C13.221 14.388 13.1835 13.4096 13.1445 12.5676H15.678L15.8115 13.8696H15.87C16.254 13.2583 17.1945 12.3563 18.768 12.3563C20.6865 12.3563 22.125 13.6403 22.125 16.4002V21.9423Z" fill="#42446E"/>
</g>
<defs>
<clipPath id="clip0_302_271">
<rect width="30" height="29.9656" fill="white" transform="translate(0 0.997803)"/>
</clipPath>
</defs>
</svg>
