<svg width="204" height="38" viewBox="0 0 204 38" fill="none" xmlns="http://www.w3.org/2000/svg">
<path d="M9.04616 25.8369L2.0659 18.7627L9.04616 11.7199H14.117L7.07416 18.7627L14.117 25.8369H9.04616ZM31.6548 30C30.0271 30 28.7228 29.6035 27.7421 28.8105C26.7613 28.0176 26.2709 26.609 26.2709 24.5848V17.8237H23.6102V14.4744H26.2709L26.7404 10.3113H30.2775V14.4744H34.4719V17.8237H30.2775V24.6161C30.2775 25.3674 30.434 25.8891 30.747 26.1812C31.0809 26.4525 31.6443 26.5881 32.4373 26.5881H34.378V30H31.6548ZM44.4246 30.3756C42.9221 30.3756 41.5657 30.0313 40.3554 29.3427C39.1659 28.654 38.2165 27.7046 37.507 26.4942C36.8183 25.263 36.474 23.844 36.474 22.2372C36.474 20.6304 36.8288 19.2218 37.5383 18.0115C38.2478 16.7803 39.1972 15.8204 40.3867 15.1317C41.597 14.4431 42.9534 14.0988 44.4559 14.0988C45.9375 14.0988 47.2731 14.4431 48.4625 15.1317C49.6728 15.8204 50.6223 16.7803 51.311 18.0115C52.0205 19.2218 52.3752 20.6304 52.3752 22.2372C52.3752 23.844 52.0205 25.263 51.311 26.4942C50.6223 27.7046 49.6728 28.654 48.4625 29.3427C47.2522 30.0313 45.9062 30.3756 44.4246 30.3756ZM44.4246 26.9011C45.468 26.9011 46.3757 26.5151 47.1478 25.743C47.92 24.95 48.306 23.7814 48.306 22.2372C48.306 20.693 47.92 19.5348 47.1478 18.7627C46.3757 17.9698 45.4784 17.5733 44.4559 17.5733C43.3917 17.5733 42.4735 17.9698 41.7014 18.7627C40.9501 19.5348 40.5745 20.693 40.5745 22.2372C40.5745 23.7814 40.9501 24.95 41.7014 25.743C42.4735 26.5151 43.3812 26.9011 44.4246 26.9011ZM64.6205 30.3756C63.4519 30.3756 62.4294 30.1565 61.553 29.7183C60.6765 29.2801 59.967 28.6645 59.4244 27.8715L58.9862 30H55.4178V7.46286H59.4244V16.6968C59.9253 16.0082 60.5826 15.403 61.3964 14.8813C62.2312 14.3596 63.3058 14.0988 64.6205 14.0988C66.0813 14.0988 67.3855 14.4535 68.5332 15.163C69.6809 15.8725 70.5887 16.8429 71.2565 18.0741C71.9242 19.3053 72.2581 20.7034 72.2581 22.2685C72.2581 23.8336 71.9242 25.2317 71.2565 26.4629C70.5887 27.6732 69.6809 28.6332 68.5332 29.3427C67.3855 30.0313 66.0813 30.3756 64.6205 30.3756ZM63.7754 26.8698C65.0483 26.8698 66.1021 26.4421 66.9368 25.5865C67.7715 24.7309 68.1889 23.6249 68.1889 22.2685C68.1889 20.9121 67.7715 19.7957 66.9368 18.9192C66.1021 18.0428 65.0483 17.6046 63.7754 17.6046C62.4816 17.6046 61.4173 18.0428 60.5826 18.9192C59.7688 19.7748 59.3618 20.8808 59.3618 22.2372C59.3618 23.5936 59.7688 24.71 60.5826 25.5865C61.4173 26.4421 62.4816 26.8698 63.7754 26.8698ZM75.2976 30V7.46286H79.3042V16.8533C79.8259 15.9978 80.5249 15.33 81.4014 14.85C82.2987 14.3492 83.3212 14.0988 84.4689 14.0988C86.3888 14.0988 87.8704 14.704 88.9137 15.9143C89.978 17.1246 90.5101 18.8984 90.5101 21.2356V30H86.5348V21.6112C86.5348 20.2756 86.2635 19.2531 85.721 18.5436C85.1993 17.8341 84.3646 17.4794 83.2169 17.4794C82.09 17.4794 81.151 17.8759 80.3997 18.6688C79.6693 19.4618 79.3042 20.5678 79.3042 21.9868V30H75.2976ZM101.251 30.3756C99.749 30.3756 98.3926 30.0313 97.1823 29.3427C95.9928 28.654 95.0433 27.7046 94.3338 26.4942C93.6452 25.263 93.3009 23.844 93.3009 22.2372C93.3009 20.6304 93.6556 19.2218 94.3651 18.0115C95.0746 16.7803 96.0241 15.8204 97.2136 15.1317C98.4239 14.4431 99.7803 14.0988 101.283 14.0988C102.764 14.0988 104.1 14.4431 105.289 15.1317C106.5 15.8204 107.449 16.7803 108.138 18.0115C108.847 19.2218 109.202 20.6304 109.202 22.2372C109.202 23.844 108.847 25.263 108.138 26.4942C107.449 27.7046 106.5 28.654 105.289 29.3427C104.079 30.0313 102.733 30.3756 101.251 30.3756ZM101.251 26.9011C102.295 26.9011 103.203 26.5151 103.975 25.743C104.747 24.95 105.133 23.7814 105.133 22.2372C105.133 20.693 104.747 19.5348 103.975 18.7627C103.203 17.9698 102.305 17.5733 101.283 17.5733C100.219 17.5733 99.3004 17.9698 98.5283 18.7627C97.777 19.5348 97.4014 20.693 97.4014 22.2372C97.4014 23.7814 97.777 24.95 98.5283 25.743C99.3004 26.5151 100.208 26.9011 101.251 26.9011ZM118.662 30.3756C117.284 30.3756 116.074 30.1565 115.031 29.7183C113.987 29.2592 113.152 28.6332 112.526 27.8402C111.9 27.0472 111.525 26.129 111.4 25.0857H115.437C115.563 25.6908 115.897 26.2125 116.439 26.6507C117.003 27.0681 117.723 27.2768 118.599 27.2768C119.475 27.2768 120.112 27.0994 120.508 26.7446C120.926 26.3899 121.134 25.983 121.134 25.5239C121.134 24.8561 120.842 24.4074 120.258 24.1779C119.674 23.9275 118.86 23.6875 117.816 23.458C117.149 23.3119 116.47 23.1345 115.782 22.9258C115.093 22.7172 114.457 22.4563 113.872 22.1433C113.309 21.8094 112.85 21.3921 112.495 20.8912C112.14 20.3695 111.963 19.7331 111.963 18.9818C111.963 17.6046 112.506 16.4464 113.591 15.5074C114.697 14.5683 116.241 14.0988 118.223 14.0988C120.06 14.0988 121.52 14.5266 122.606 15.3822C123.712 16.2377 124.369 17.4168 124.578 18.9192H120.79C120.561 17.7715 119.695 17.1977 118.192 17.1977C117.441 17.1977 116.856 17.3437 116.439 17.6359C116.043 17.928 115.844 18.2932 115.844 18.7314C115.844 19.1905 116.147 19.5557 116.752 19.827C117.357 20.0983 118.161 20.3487 119.162 20.5782C120.248 20.8286 121.239 21.1103 122.136 21.4234C123.054 21.7155 123.785 22.1642 124.327 22.7693C124.87 23.3536 125.141 24.1988 125.141 25.3048C125.162 26.2647 124.911 27.1307 124.39 27.9028C123.868 28.6749 123.117 29.2801 122.136 29.7183C121.155 30.1565 119.997 30.3756 118.662 30.3756ZM134.579 30C132.951 30 131.647 29.6035 130.666 28.8105C129.686 28.0176 129.195 26.609 129.195 24.5848V17.8237H126.535V14.4744H129.195L129.665 10.3113H133.202V14.4744H137.396V17.8237H133.202V24.6161C133.202 25.3674 133.358 25.8891 133.671 26.1812C134.005 26.4525 134.569 26.5881 135.362 26.5881H137.302V30H134.579ZM147.443 30.3756C145.878 30.3756 144.49 30.0417 143.28 29.374C142.069 28.7062 141.12 27.7672 140.431 26.5568C139.743 25.3465 139.398 23.9484 139.398 22.3624C139.398 20.7556 139.732 19.3262 140.4 18.0741C141.089 16.822 142.028 15.8517 143.217 15.163C144.428 14.4535 145.847 14.0988 147.474 14.0988C148.998 14.0988 150.344 14.4327 151.512 15.1004C152.681 15.7682 153.588 16.6864 154.235 17.855C154.903 19.0027 155.237 20.2861 155.237 21.7051C155.237 21.9346 155.227 22.1746 155.206 22.425C155.206 22.6754 155.195 22.9363 155.174 23.2076H143.374C143.457 24.4179 143.875 25.3674 144.626 26.056C145.398 26.7446 146.327 27.089 147.412 27.089C148.225 27.089 148.904 26.9116 149.446 26.5568C150.01 26.1812 150.427 25.7012 150.698 25.117H154.767C154.475 26.0977 153.985 26.995 153.296 27.8089C152.629 28.6019 151.794 29.2279 150.792 29.687C149.811 30.1461 148.695 30.3756 147.443 30.3756ZM147.474 17.3542C146.493 17.3542 145.627 17.6359 144.876 18.1993C144.125 18.7419 143.645 19.5766 143.436 20.7034H151.168C151.105 19.6809 150.73 18.8671 150.041 18.2619C149.352 17.6567 148.497 17.3542 147.474 17.3542ZM158.067 30V14.4744H161.636L162.011 17.3855C162.575 16.3838 163.336 15.5908 164.296 15.0065C165.277 14.4014 166.425 14.0988 167.739 14.0988V18.3245H166.612C165.736 18.3245 164.953 18.4601 164.265 18.7314C163.576 19.0027 163.034 19.4722 162.637 20.14C162.262 20.8078 162.074 21.7364 162.074 22.9258V30H158.067ZM175.542 33.4745L183.368 5.67867H187.28L179.424 33.4745H175.542ZM189.649 25.8369L196.66 18.7627L189.649 11.7199H194.688L201.7 18.7627L194.688 25.8369H189.649Z" fill="url(#paint0_linear_302_28)"/>
<defs>
<linearGradient id="paint0_linear_302_28" x1="-5.34918e-06" y1="29.8571" x2="25.0724" y2="-60.3685" gradientUnits="userSpaceOnUse">
<stop offset="0.156307" stop-color="#00C0FD"/>
<stop offset="0.799018" stop-color="#E70FAA"/>
</linearGradient>
</defs>
</svg>
