<svg width="32" height="32" viewBox="0 0 32 32" fill="none" xmlns="http://www.w3.org/2000/svg">
<g id="Frame">
<path id="Vector" d="M16.875 1.8728C8.59152 1.8728 1.875 8.58161 1.875 16.8556C1.875 25.1296 8.59152 31.8384 16.875 31.8384C25.1585 31.8384 31.875 25.1296 31.875 16.8556C31.875 8.58161 25.1585 1.8728 16.875 1.8728ZM24.0837 13.1667C24.0937 13.3239 24.0937 13.4878 24.0937 13.6483C24.0937 18.5579 20.3504 24.2132 13.51 24.2132C11.4007 24.2132 9.44531 23.6012 7.79799 22.5477C8.09933 22.5812 8.38728 22.5945 8.69531 22.5945C10.4364 22.5945 12.0368 22.0059 13.3125 21.0093C11.6786 20.9759 10.3058 19.9057 9.83705 18.4341C10.4096 18.5177 10.9252 18.5177 11.5145 18.3672C10.6732 18.1965 9.91699 17.7401 9.37438 17.0756C8.83178 16.4111 8.53623 15.5794 8.53795 14.7219V14.6751C9.03013 14.9526 9.60938 15.1232 10.2154 15.1466C9.70595 14.8075 9.28814 14.348 8.99903 13.809C8.70993 13.2699 8.55845 12.6679 8.55804 12.0564C8.55804 11.3641 8.73884 10.732 9.06362 10.1836C9.99744 11.3318 11.1627 12.2709 12.4837 12.9399C13.8047 13.6088 15.2518 13.9926 16.731 14.0664C16.2054 11.5414 18.0938 9.49797 20.3638 9.49797C21.4353 9.49797 22.3996 9.94611 23.0792 10.6685C23.9196 10.5113 24.7232 10.1969 25.4397 9.77555C25.1618 10.6351 24.5792 11.3608 23.8058 11.819C24.5558 11.7387 25.279 11.5313 25.9487 11.2404C25.4431 11.9828 24.8103 12.6417 24.0837 13.1667Z" fill="#42446E"/>
</g>
</svg>
